<svg width="508" height="93" viewBox="0 0 508 93" fill="none" xmlns="http://www.w3.org/2000/svg">
<path d="M14.6018 12.224C13.2791 12.224 12.2444 11.6747 11.4978 10.576C10.7511 9.46667 10.3778 8.02133 10.3778 6.24C10.3778 4.45867 10.7511 3.01867 11.4978 1.92C12.2551 0.810666 13.3058 0.256 14.6498 0.256C15.6524 0.256 16.4844 0.565333 17.1458 1.184C17.8178 1.80267 18.2338 2.61333 18.3938 3.616L17.0658 3.872C16.9911 3.2 16.7404 2.61867 16.3138 2.128C15.8978 1.62667 15.3378 1.376 14.6338 1.376C13.6844 1.376 12.9484 1.84533 12.4258 2.784C11.9138 3.712 11.6578 4.87467 11.6578 6.272C11.6578 7.648 11.9084 8.8 12.4098 9.728C12.9111 10.6453 13.6364 11.104 14.5858 11.104C15.2898 11.104 15.8658 10.8533 16.3138 10.352C16.7618 9.85067 17.0498 9.26933 17.1778 8.608L18.4258 8.88C18.1911 9.88267 17.7378 10.6933 17.0658 11.312C16.4044 11.92 15.5831 12.224 14.6018 12.224ZM24.1955 12.224C22.8728 12.224 21.8382 11.6747 21.0915 10.576C20.3448 9.46667 19.9715 8.02133 19.9715 6.24C19.9715 4.45867 20.3448 3.01867 21.0915 1.92C21.8488 0.810666 22.8995 0.256 24.2435 0.256C25.2462 0.256 26.0782 0.565333 26.7395 1.184C27.4115 1.80267 27.8275 2.61333 27.9875 3.616L26.6595 3.872C26.5848 3.2 26.3342 2.61867 25.9075 2.128C25.4915 1.62667 24.9315 1.376 24.2275 1.376C23.2782 1.376 22.5422 1.84533 22.0195 2.784C21.5075 3.712 21.2515 4.87467 21.2515 6.272C21.2515 7.648 21.5022 8.8 22.0035 9.728C22.5048 10.6453 23.2302 11.104 24.1795 11.104C24.8835 11.104 25.4595 10.8533 25.9075 10.352C26.3555 9.85067 26.6435 9.26933 26.7715 8.608L28.0195 8.88C27.7848 9.88267 27.3315 10.6933 26.6595 11.312C25.9982 11.92 25.1768 12.224 24.1955 12.224ZM33.7893 12.224C32.4666 12.224 31.4319 11.6747 30.6853 10.576C29.9386 9.46667 29.5653 8.02133 29.5653 6.24C29.5653 4.45867 29.9386 3.01867 30.6853 1.92C31.4426 0.810666 32.4933 0.256 33.8373 0.256C34.8399 0.256 35.6719 0.565333 36.3333 1.184C37.0053 1.80267 37.4213 2.61333 37.5813 3.616L36.2533 3.872C36.1786 3.2 35.9279 2.61867 35.5013 2.128C35.0853 1.62667 34.5253 1.376 33.8213 1.376C32.8719 1.376 32.1359 1.84533 31.6133 2.784C31.1013 3.712 30.8453 4.87467 30.8453 6.272C30.8453 7.648 31.0959 8.8 31.5973 9.728C32.0986 10.6453 32.8239 11.104 33.7733 11.104C34.4773 11.104 35.0533 10.8533 35.5013 10.352C35.9493 9.85067 36.2373 9.26933 36.3653 8.608L37.6133 8.88C37.3786 9.88267 36.9253 10.6933 36.2533 11.312C35.5919 11.92 34.7706 12.224 33.7893 12.224ZM43.383 12.224C42.0603 12.224 41.0257 11.6747 40.279 10.576C39.5323 9.46667 39.159 8.02133 39.159 6.24C39.159 4.45867 39.5323 3.01867 40.279 1.92C41.0363 0.810666 42.087 0.256 43.431 0.256C44.4337 0.256 45.2657 0.565333 45.927 1.184C46.599 1.80267 47.015 2.61333 47.175 3.616L45.847 3.872C45.7723 3.2 45.5217 2.61867 45.095 2.128C44.679 1.62667 44.119 1.376 43.415 1.376C42.4657 1.376 41.7297 1.84533 41.207 2.784C40.695 3.712 40.439 4.87467 40.439 6.272C40.439 7.648 40.6897 8.8 41.191 9.728C41.6923 10.6453 42.4177 11.104 43.367 11.104C44.071 11.104 44.647 10.8533 45.095 10.352C45.543 9.85067 45.831 9.26933 45.959 8.608L47.207 8.88C46.9723 9.88267 46.519 10.6933 45.847 11.312C45.1857 11.92 44.3643 12.224 43.383 12.224ZM81.55 12.224C80.2167 12.224 79.182 11.696 78.446 10.64C77.7207 9.584 77.358 8.112 77.358 6.224C77.358 4.34667 77.7207 2.88533 78.446 1.84C79.182 0.783999 80.2167 0.256 81.55 0.256C82.894 0.256 83.934 0.783999 84.67 1.84C85.406 2.88533 85.774 4.34667 85.774 6.224C85.774 8.112 85.406 9.584 84.67 10.64C83.934 11.696 82.894 12.224 81.55 12.224ZM81.55 11.104C82.478 11.104 83.198 10.6667 83.71 9.792C84.2327 8.90667 84.494 7.71733 84.494 6.224C84.494 4.752 84.2327 3.57867 83.71 2.704C83.198 1.81867 82.478 1.376 81.55 1.376C80.6433 1.376 79.9287 1.81867 79.406 2.704C78.894 3.57867 78.638 4.752 78.638 6.224C78.638 7.73867 78.878 8.93333 79.358 9.808C79.8487 10.672 80.5793 11.104 81.55 11.104ZM91.1438 12.224C89.8104 12.224 88.7758 11.696 88.0398 10.64C87.3144 9.584 86.9518 8.112 86.9518 6.224C86.9518 4.34667 87.3144 2.88533 88.0398 1.84C88.7758 0.783999 89.8104 0.256 91.1438 0.256C92.4878 0.256 93.5278 0.783999 94.2638 1.84C94.9998 2.88533 95.3678 4.34667 95.3678 6.224C95.3678 8.112 94.9998 9.584 94.2638 10.64C93.5278 11.696 92.4878 12.224 91.1438 12.224ZM91.1438 11.104C92.0718 11.104 92.7918 10.6667 93.3038 9.792C93.8264 8.90667 94.0878 7.71733 94.0878 6.224C94.0878 4.752 93.8264 3.57867 93.3038 2.704C92.7918 1.81867 92.0718 1.376 91.1438 1.376C90.2371 1.376 89.5224 1.81867 88.9998 2.704C88.4878 3.57867 88.2318 4.752 88.2318 6.224C88.2318 7.73867 88.4718 8.93333 88.9518 9.808C89.4424 10.672 90.1731 11.104 91.1438 11.104ZM100.738 12.224C99.4042 12.224 98.3695 11.696 97.6335 10.64C96.9082 9.584 96.5455 8.112 96.5455 6.224C96.5455 4.34667 96.9082 2.88533 97.6335 1.84C98.3695 0.783999 99.4042 0.256 100.738 0.256C102.082 0.256 103.122 0.783999 103.858 1.84C104.594 2.88533 104.962 4.34667 104.962 6.224C104.962 8.112 104.594 9.584 103.858 10.64C103.122 11.696 102.082 12.224 100.738 12.224ZM100.738 11.104C101.666 11.104 102.386 10.6667 102.898 9.792C103.42 8.90667 103.682 7.71733 103.682 6.224C103.682 4.752 103.42 3.57867 102.898 2.704C102.386 1.81867 101.666 1.376 100.738 1.376C99.8308 1.376 99.1162 1.81867 98.5935 2.704C98.0815 3.57867 97.8255 4.752 97.8255 6.224C97.8255 7.73867 98.0655 8.93333 98.5455 9.808C99.0362 10.672 99.7668 11.104 100.738 11.104ZM135.368 12V0.48H136.713L141.593 9.568H141.673V0.48H142.889V12H141.609L136.681 2.864H136.601V12H135.368ZM144.962 12V0.48H146.306L151.186 9.568H151.266V0.48H152.482V12H151.202L146.274 2.864H146.194V12H144.962ZM173.743 12V0.48H175.088L179.968 9.568H180.048V0.48H181.264V12H179.984L175.056 2.864H174.976V12H173.743ZM216.055 12.224C214.679 12.224 213.607 11.6853 212.839 10.608C212.081 9.52 211.703 8.05333 211.703 6.208C211.703 4.36267 212.081 2.912 212.839 1.856C213.596 0.789333 214.657 0.256 216.023 0.256C217.057 0.256 217.9 0.559999 218.551 1.168C219.212 1.76533 219.649 2.57067 219.863 3.584L218.535 3.872C218.108 2.208 217.26 1.376 215.991 1.376C215.02 1.376 214.273 1.81333 213.751 2.688C213.239 3.552 212.983 4.71467 212.983 6.176C212.983 7.68 213.255 8.88 213.799 9.776C214.343 10.6613 215.121 11.104 216.135 11.104C216.913 11.104 217.543 10.816 218.023 10.24C218.503 9.664 218.743 8.768 218.743 7.552V7.36H215.303V6.24H220.102V7.056C220.102 8.73067 219.735 10.0107 218.999 10.896C218.273 11.7813 217.292 12.224 216.055 12.224ZM225.648 12.224C224.272 12.224 223.2 11.6853 222.432 10.608C221.675 9.52 221.296 8.05333 221.296 6.208C221.296 4.36267 221.675 2.912 222.432 1.856C223.19 0.789333 224.251 0.256 225.616 0.256C226.651 0.256 227.494 0.559999 228.144 1.168C228.806 1.76533 229.243 2.57067 229.456 3.584L228.128 3.872C227.702 2.208 226.854 1.376 225.584 1.376C224.614 1.376 223.867 1.81333 223.344 2.688C222.832 3.552 222.576 4.71467 222.576 6.176C222.576 7.68 222.848 8.88 223.392 9.776C223.936 10.6613 224.715 11.104 225.728 11.104C226.507 11.104 227.136 10.816 227.616 10.24C228.096 9.664 228.336 8.768 228.336 7.552V7.36H224.896V6.24H229.696V7.056C229.696 8.73067 229.328 10.0107 228.592 10.896C227.867 11.7813 226.886 12.224 225.648 12.224ZM235.242 12.224C233.866 12.224 232.794 11.6853 232.026 10.608C231.269 9.52 230.89 8.05333 230.89 6.208C230.89 4.36267 231.269 2.912 232.026 1.856C232.783 0.789333 233.845 0.256 235.21 0.256C236.245 0.256 237.087 0.559999 237.738 1.168C238.399 1.76533 238.837 2.57067 239.05 3.584L237.722 3.872C237.295 2.208 236.447 1.376 235.178 1.376C234.207 1.376 233.461 1.81333 232.938 2.688C232.426 3.552 232.17 4.71467 232.17 6.176C232.17 7.68 232.442 8.88 232.986 9.776C233.53 10.6613 234.309 11.104 235.322 11.104C236.101 11.104 236.73 10.816 237.21 10.24C237.69 9.664 237.93 8.768 237.93 7.552V7.36H234.49V6.24H239.29V7.056C239.29 8.73067 238.922 10.0107 238.186 10.896C237.461 11.7813 236.479 12.224 235.242 12.224ZM269.697 12V0.48H273.073C274.353 0.48 275.292 0.735999 275.889 1.248C276.497 1.74933 276.801 2.52267 276.801 3.568C276.801 4.25067 276.609 4.85867 276.225 5.392C275.841 5.92533 275.35 6.24533 274.753 6.352L274.769 6.384C275.409 6.42667 275.878 6.63467 276.177 7.008C276.486 7.37067 276.652 8.00533 276.673 8.912C276.705 10.3093 276.849 11.3387 277.105 12H275.793C275.59 11.392 275.462 10.4107 275.409 9.056C275.377 8.21333 275.228 7.65333 274.961 7.376C274.694 7.088 274.145 6.944 273.313 6.944H270.977V12H269.697ZM270.977 5.824H272.929C274.657 5.824 275.521 5.072 275.521 3.568C275.521 2.85333 275.297 2.34667 274.849 2.048C274.412 1.74933 273.782 1.6 272.961 1.6H270.977V5.824ZM279.291 12V0.48H282.667C283.947 0.48 284.885 0.735999 285.483 1.248C286.091 1.74933 286.395 2.52267 286.395 3.568C286.395 4.25067 286.203 4.85867 285.819 5.392C285.435 5.92533 284.944 6.24533 284.347 6.352L284.363 6.384C285.003 6.42667 285.472 6.63467 285.771 7.008C286.08 7.37067 286.245 8.00533 286.267 8.912C286.299 10.3093 286.443 11.3387 286.699 12H285.387C285.184 11.392 285.056 10.4107 285.003 9.056C284.971 8.21333 284.821 7.65333 284.555 7.376C284.288 7.088 283.739 6.944 282.907 6.944H280.571V12H279.291ZM280.571 5.824H282.523C284.251 5.824 285.115 5.072 285.115 3.568C285.115 2.85333 284.891 2.34667 284.443 2.048C284.005 1.74933 283.376 1.6 282.555 1.6H280.571V5.824ZM288.885 12V0.48H292.261C293.541 0.48 294.479 0.735999 295.077 1.248C295.685 1.74933 295.989 2.52267 295.989 3.568C295.989 4.25067 295.797 4.85867 295.413 5.392C295.029 5.92533 294.538 6.24533 293.941 6.352L293.957 6.384C294.597 6.42667 295.066 6.63467 295.365 7.008C295.674 7.37067 295.839 8.00533 295.861 8.912C295.893 10.3093 296.037 11.3387 296.293 12H294.981C294.778 11.392 294.65 10.4107 294.597 9.056C294.565 8.21333 294.415 7.65333 294.149 7.376C293.882 7.088 293.333 6.944 292.501 6.944H290.164V12H288.885ZM290.164 5.824H292.117C293.845 5.824 294.709 5.072 294.709 3.568C294.709 2.85333 294.485 2.34667 294.037 2.048C293.599 1.74933 292.97 1.6 292.149 1.6H290.164V5.824ZM298.478 12V0.48H301.854C303.134 0.48 304.073 0.735999 304.67 1.248C305.278 1.74933 305.582 2.52267 305.582 3.568C305.582 4.25067 305.39 4.85867 305.006 5.392C304.622 5.92533 304.132 6.24533 303.534 6.352L303.55 6.384C304.19 6.42667 304.66 6.63467 304.958 7.008C305.268 7.37067 305.433 8.00533 305.454 8.912C305.486 10.3093 305.63 11.3387 305.886 12H304.574C304.372 11.392 304.244 10.4107 304.19 9.056C304.158 8.21333 304.009 7.65333 303.742 7.376C303.476 7.088 302.926 6.944 302.094 6.944H299.758V12H298.478ZM299.758 5.824H301.71C303.438 5.824 304.302 5.072 304.302 3.568C304.302 2.85333 304.078 2.34667 303.63 2.048C303.193 1.74933 302.564 1.6 301.742 1.6H299.758V5.824ZM345.679 12L349.487 0.48H350.863L354.671 12H353.327L352.383 9.04H347.967L347.023 12H345.679ZM348.271 7.92H352.063L350.175 1.92L348.271 7.92ZM355.273 12L359.081 0.48H360.457L364.265 12H362.921L361.977 9.04H357.561L356.617 12H355.273ZM357.865 7.92H361.657L359.769 1.92L357.865 7.92ZM364.867 12L368.674 0.48H370.051L373.859 12H372.515L371.571 9.04H367.155L366.211 12H364.867ZM367.459 7.92H371.251L369.363 1.92L367.459 7.92ZM407.114 12V1.6H403.45V0.48H412.058V1.6H408.394V12H407.114ZM416.707 12V1.6H413.043V0.48H421.651V1.6H417.987V12H416.707ZM426.301 12V1.6H422.637V0.48H431.245V1.6H427.581V12H426.301ZM435.895 12V1.6H432.231V0.48H440.839V1.6H437.175V12H435.895ZM445.489 12V1.6H441.825V0.48H450.433V1.6H446.769V12H445.489ZM474.974 12.224C473.896 12.224 473.011 11.9467 472.318 11.392C471.624 10.8373 471.203 10.048 471.054 9.024L472.382 8.8C472.648 10.336 473.534 11.104 475.038 11.104C475.838 11.104 476.44 10.9067 476.846 10.512C477.251 10.1173 477.454 9.632 477.454 9.056C477.454 8.72533 477.39 8.44267 477.262 8.208C477.134 7.96267 476.931 7.76 476.654 7.6C476.376 7.42933 476.136 7.30667 475.934 7.232C475.731 7.14667 475.438 7.04 475.054 6.912L474.542 6.752C472.526 6.12267 471.518 5.01333 471.518 3.424C471.518 2.44267 471.848 1.66933 472.51 1.104C473.171 0.538666 474.03 0.256 475.086 0.256C476.014 0.256 476.803 0.490666 477.454 0.959999C478.104 1.41867 478.483 2.10133 478.59 3.008L477.31 3.248C477.15 2 476.387 1.376 475.022 1.376C474.307 1.376 473.758 1.54133 473.374 1.872C472.99 2.20267 472.798 2.688 472.798 3.328C472.798 3.95733 472.984 4.432 473.358 4.752C473.731 5.06133 474.328 5.36 475.15 5.648L475.662 5.824C476.078 5.97333 476.398 6.09067 476.622 6.176C476.846 6.26133 477.112 6.39467 477.422 6.576C477.742 6.74667 477.976 6.928 478.126 7.12C478.286 7.30133 478.424 7.54667 478.542 7.856C478.67 8.15467 478.734 8.49067 478.734 8.864C478.734 9.83467 478.398 10.64 477.726 11.28C477.064 11.9093 476.147 12.224 474.974 12.224ZM484.568 12.224C483.49 12.224 482.605 11.9467 481.912 11.392C481.218 10.8373 480.797 10.048 480.648 9.024L481.976 8.8C482.242 10.336 483.128 11.104 484.632 11.104C485.432 11.104 486.034 10.9067 486.44 10.512C486.845 10.1173 487.048 9.632 487.048 9.056C487.048 8.72533 486.984 8.44267 486.856 8.208C486.728 7.96267 486.525 7.76 486.248 7.6C485.97 7.42933 485.73 7.30667 485.528 7.232C485.325 7.14667 485.032 7.04 484.648 6.912L484.136 6.752C482.12 6.12267 481.112 5.01333 481.112 3.424C481.112 2.44267 481.442 1.66933 482.104 1.104C482.765 0.538666 483.624 0.256 484.68 0.256C485.608 0.256 486.397 0.490666 487.048 0.959999C487.698 1.41867 488.077 2.10133 488.184 3.008L486.904 3.248C486.744 2 485.981 1.376 484.616 1.376C483.901 1.376 483.352 1.54133 482.968 1.872C482.584 2.20267 482.392 2.688 482.392 3.328C482.392 3.95733 482.578 4.432 482.952 4.752C483.325 5.06133 483.922 5.36 484.744 5.648L485.256 5.824C485.672 5.97333 485.992 6.09067 486.216 6.176C486.44 6.26133 486.706 6.39467 487.016 6.576C487.336 6.74667 487.57 6.928 487.72 7.12C487.88 7.30133 488.018 7.54667 488.135 7.856C488.264 8.15467 488.328 8.49067 488.328 8.864C488.328 9.83467 487.992 10.64 487.32 11.28C486.658 11.9093 485.741 12.224 484.568 12.224ZM494.161 12.224C493.084 12.224 492.199 11.9467 491.505 11.392C490.812 10.8373 490.391 10.048 490.241 9.024L491.569 8.8C491.836 10.336 492.721 11.104 494.225 11.104C495.025 11.104 495.628 10.9067 496.033 10.512C496.439 10.1173 496.641 9.632 496.641 9.056C496.641 8.72533 496.577 8.44267 496.449 8.208C496.321 7.96267 496.119 7.76 495.841 7.6C495.564 7.42933 495.324 7.30667 495.121 7.232C494.919 7.14667 494.625 7.04 494.241 6.912L493.729 6.752C491.713 6.12267 490.705 5.01333 490.705 3.424C490.705 2.44267 491.036 1.66933 491.697 1.104C492.359 0.538666 493.217 0.256 494.273 0.256C495.201 0.256 495.991 0.490666 496.641 0.959999C497.292 1.41867 497.671 2.10133 497.777 3.008L496.497 3.248C496.337 2 495.575 1.376 494.209 1.376C493.495 1.376 492.945 1.54133 492.561 1.872C492.177 2.20267 491.985 2.688 491.985 3.328C491.985 3.95733 492.172 4.432 492.545 4.752C492.919 5.06133 493.516 5.36 494.337 5.648L494.849 5.824C495.265 5.97333 495.585 6.09067 495.809 6.176C496.033 6.26133 496.3 6.39467 496.609 6.576C496.929 6.74667 497.164 6.928 497.313 7.12C497.473 7.30133 497.612 7.54667 497.729 7.856C497.857 8.15467 497.921 8.49067 497.921 8.864C497.921 9.83467 497.585 10.64 496.913 11.28C496.252 11.9093 495.335 12.224 494.161 12.224ZM503.755 12.224C502.678 12.224 501.792 11.9467 501.099 11.392C500.406 10.8373 499.984 10.048 499.835 9.024L501.163 8.8C501.43 10.336 502.315 11.104 503.819 11.104C504.619 11.104 505.222 10.9067 505.627 10.512C506.032 10.1173 506.235 9.632 506.235 9.056C506.235 8.72533 506.171 8.44267 506.043 8.208C505.915 7.96267 505.712 7.76 505.435 7.6C505.158 7.42933 504.918 7.30667 504.715 7.232C504.512 7.14667 504.219 7.04 503.835 6.912L503.323 6.752C501.307 6.12267 500.299 5.01333 500.299 3.424C500.299 2.44267 500.63 1.66933 501.291 1.104C501.952 0.538666 502.811 0.256 503.867 0.256C504.795 0.256 505.584 0.490666 506.235 0.959999C506.886 1.41867 507.264 2.10133 507.371 3.008L506.091 3.248C505.931 2 505.168 1.376 503.803 1.376C503.088 1.376 502.539 1.54133 502.155 1.872C501.771 2.20267 501.579 2.688 501.579 3.328C501.579 3.95733 501.766 4.432 502.139 4.752C502.512 5.06133 503.11 5.36 503.931 5.648L504.443 5.824C504.859 5.97333 505.179 6.09067 505.403 6.176C505.627 6.26133 505.894 6.39467 506.203 6.576C506.523 6.74667 506.758 6.928 506.907 7.12C507.067 7.30133 507.206 7.54667 507.323 7.856C507.451 8.15467 507.515 8.49067 507.515 8.864C507.515 9.83467 507.179 10.64 506.507 11.28C505.846 11.9093 504.928 12.224 503.755 12.224ZM5.008 32.224C3.68533 32.224 2.65067 31.6747 1.904 30.576C1.15733 29.4667 0.784 28.0213 0.784 26.24C0.784 24.4587 1.15733 23.0187 1.904 21.92C2.66133 20.8107 3.712 20.256 5.056 20.256C6.05867 20.256 6.89067 20.5653 7.552 21.184C8.224 21.8027 8.64 22.6133 8.8 23.616L7.472 23.872C7.39733 23.2 7.14667 22.6187 6.72 22.128C6.304 21.6267 5.744 21.376 5.04 21.376C4.09067 21.376 3.35467 21.8453 2.832 22.784C2.32 23.712 2.064 24.8747 2.064 26.272C2.064 27.648 2.31467 28.8 2.816 29.728C3.31733 30.6453 4.04267 31.104 4.992 31.104C5.696 31.104 6.272 30.8533 6.72 30.352C7.168 29.8507 7.456 29.2693 7.584 28.608L8.832 28.88C8.59733 29.8827 8.144 30.6933 7.472 31.312C6.81067 31.92 5.98933 32.224 5.008 32.224ZM71.9563 32.224C70.6229 32.224 69.5883 31.696 68.8523 30.64C68.1269 29.584 67.7643 28.112 67.7643 26.224C67.7643 24.3467 68.1269 22.8853 68.8523 21.84C69.5883 20.784 70.6229 20.256 71.9563 20.256C73.3003 20.256 74.3403 20.784 75.0763 21.84C75.8123 22.8853 76.1803 24.3467 76.1803 26.224C76.1803 28.112 75.8123 29.584 75.0763 30.64C74.3403 31.696 73.3003 32.224 71.9563 32.224ZM71.9563 31.104C72.8843 31.104 73.6043 30.6667 74.1163 29.792C74.6389 28.9067 74.9003 27.7173 74.9003 26.224C74.9003 24.752 74.6389 23.5787 74.1163 22.704C73.6043 21.8187 72.8843 21.376 71.9563 21.376C71.0496 21.376 70.3349 21.8187 69.8123 22.704C69.3003 23.5787 69.0443 24.752 69.0443 26.224C69.0443 27.7387 69.2843 28.9333 69.7643 29.808C70.2549 30.672 70.9856 31.104 71.9563 31.104ZM110.331 32.224C108.998 32.224 107.963 31.696 107.227 30.64C106.502 29.584 106.139 28.112 106.139 26.224C106.139 24.3467 106.502 22.8853 107.227 21.84C107.963 20.784 108.998 20.256 110.331 20.256C111.675 20.256 112.715 20.784 113.451 21.84C114.187 22.8853 114.555 24.3467 114.555 26.224C114.555 28.112 114.187 29.584 113.451 30.64C112.715 31.696 111.675 32.224 110.331 32.224ZM110.331 31.104C111.259 31.104 111.979 30.6667 112.491 29.792C113.014 28.9067 113.275 27.7173 113.275 26.224C113.275 24.752 113.014 23.5787 112.491 22.704C111.979 21.8187 111.259 21.376 110.331 21.376C109.425 21.376 108.71 21.8187 108.187 22.704C107.675 23.5787 107.419 24.752 107.419 26.224C107.419 27.7387 107.659 28.9333 108.139 29.808C108.63 30.672 109.361 31.104 110.331 31.104ZM135.368 32V20.48H136.713L141.593 29.568H141.673V20.48H142.889V32H141.609L136.681 22.864H136.601V32H135.368ZM154.556 32V20.48H155.9L160.78 29.568H160.86V20.48H162.076V32H160.796L155.868 22.864H155.788V32H154.556ZM173.743 32V20.48H175.088L179.968 29.568H180.048V20.48H181.264V32H179.984L175.056 22.864H174.976V32H173.743ZM206.461 32.224C205.085 32.224 204.013 31.6853 203.245 30.608C202.487 29.52 202.109 28.0533 202.109 26.208C202.109 24.3627 202.487 22.912 203.245 21.856C204.002 20.7893 205.063 20.256 206.429 20.256C207.463 20.256 208.306 20.56 208.957 21.168C209.618 21.7653 210.055 22.5707 210.269 23.584L208.941 23.872C208.514 22.208 207.666 21.376 206.397 21.376C205.426 21.376 204.679 21.8133 204.157 22.688C203.645 23.552 203.389 24.7147 203.389 26.176C203.389 27.68 203.661 28.88 204.205 29.776C204.749 30.6613 205.527 31.104 206.541 31.104C207.319 31.104 207.949 30.816 208.429 30.24C208.909 29.664 209.149 28.768 209.149 27.552V27.36H205.709V26.24H210.509V27.056C210.509 28.7307 210.141 30.0107 209.405 30.896C208.679 31.7813 207.698 32.224 206.461 32.224ZM269.697 32V20.48H273.073C274.353 20.48 275.292 20.736 275.889 21.248C276.497 21.7493 276.801 22.5227 276.801 23.568C276.801 24.2507 276.609 24.8587 276.225 25.392C275.841 25.9253 275.35 26.2453 274.753 26.352L274.769 26.384C275.409 26.4267 275.878 26.6347 276.177 27.008C276.486 27.3707 276.652 28.0053 276.673 28.912C276.705 30.3093 276.849 31.3387 277.105 32H275.793C275.59 31.392 275.462 30.4107 275.409 29.056C275.377 28.2133 275.228 27.6533 274.961 27.376C274.694 27.088 274.145 26.944 273.313 26.944H270.977V32H269.697ZM270.977 25.824H272.929C274.657 25.824 275.521 25.072 275.521 23.568C275.521 22.8533 275.297 22.3467 274.849 22.048C274.412 21.7493 273.782 21.6 272.961 21.6H270.977V25.824ZM308.072 32V20.48H311.448C312.728 20.48 313.667 20.736 314.264 21.248C314.872 21.7493 315.176 22.5227 315.176 23.568C315.176 24.2507 314.984 24.8587 314.6 25.392C314.216 25.9253 313.725 26.2453 313.128 26.352L313.144 26.384C313.784 26.4267 314.253 26.6347 314.552 27.008C314.861 27.3707 315.027 28.0053 315.048 28.912C315.08 30.3093 315.224 31.3387 315.48 32H314.168C313.965 31.392 313.837 30.4107 313.784 29.056C313.752 28.2133 313.603 27.6533 313.336 27.376C313.069 27.088 312.52 26.944 311.688 26.944H309.352V32H308.072ZM309.352 25.824H311.304C313.032 25.824 313.896 25.072 313.896 23.568C313.896 22.8533 313.672 22.3467 313.224 22.048C312.787 21.7493 312.157 21.6 311.336 21.6H309.352V25.824ZM336.085 32L339.893 20.48H341.269L345.077 32H343.733L342.789 29.04H338.373L337.429 32H336.085ZM338.677 27.92H342.469L340.581 21.92L338.677 27.92ZM374.46 32L378.268 20.48H379.644L383.452 32H382.108L381.164 29.04H376.748L375.804 32H374.46ZM377.052 27.92H380.844L378.956 21.92L377.052 27.92ZM426.301 32V21.6H422.637V20.48H431.245V21.6H427.581V32H426.301ZM474.974 32.224C473.896 32.224 473.011 31.9467 472.318 31.392C471.624 30.8373 471.203 30.048 471.054 29.024L472.382 28.8C472.648 30.336 473.534 31.104 475.038 31.104C475.838 31.104 476.44 30.9067 476.846 30.512C477.251 30.1173 477.454 29.632 477.454 29.056C477.454 28.7253 477.39 28.4427 477.262 28.208C477.134 27.9627 476.931 27.76 476.654 27.6C476.376 27.4293 476.136 27.3067 475.934 27.232C475.731 27.1467 475.438 27.04 475.054 26.912L474.542 26.752C472.526 26.1227 471.518 25.0133 471.518 23.424C471.518 22.4427 471.848 21.6693 472.51 21.104C473.171 20.5387 474.03 20.256 475.086 20.256C476.014 20.256 476.803 20.4907 477.454 20.96C478.104 21.4187 478.483 22.1013 478.59 23.008L477.31 23.248C477.15 22 476.387 21.376 475.022 21.376C474.307 21.376 473.758 21.5413 473.374 21.872C472.99 22.2027 472.798 22.688 472.798 23.328C472.798 23.9573 472.984 24.432 473.358 24.752C473.731 25.0613 474.328 25.36 475.15 25.648L475.662 25.824C476.078 25.9733 476.398 26.0907 476.622 26.176C476.846 26.2613 477.112 26.3947 477.422 26.576C477.742 26.7467 477.976 26.928 478.126 27.12C478.286 27.3013 478.424 27.5467 478.542 27.856C478.67 28.1547 478.734 28.4907 478.734 28.864C478.734 29.8347 478.398 30.64 477.726 31.28C477.064 31.9093 476.147 32.224 474.974 32.224ZM5.008 52.224C3.68533 52.224 2.65067 51.6747 1.904 50.576C1.15733 49.4667 0.784 48.0213 0.784 46.24C0.784 44.4587 1.15733 43.0187 1.904 41.92C2.66133 40.8107 3.712 40.256 5.056 40.256C6.05867 40.256 6.89067 40.5653 7.552 41.184C8.224 41.8027 8.64 42.6133 8.8 43.616L7.472 43.872C7.39733 43.2 7.14667 42.6187 6.72 42.128C6.304 41.6267 5.744 41.376 5.04 41.376C4.09067 41.376 3.35467 41.8453 2.832 42.784C2.32 43.712 2.064 44.8747 2.064 46.272C2.064 47.648 2.31467 48.8 2.816 49.728C3.31733 50.6453 4.04267 51.104 4.992 51.104C5.696 51.104 6.272 50.8533 6.72 50.352C7.168 49.8507 7.456 49.2693 7.584 48.608L8.832 48.88C8.59733 49.8827 8.144 50.6933 7.472 51.312C6.81067 51.92 5.98933 52.224 5.008 52.224ZM71.9563 52.224C70.6229 52.224 69.5883 51.696 68.8523 50.64C68.1269 49.584 67.7643 48.112 67.7643 46.224C67.7643 44.3467 68.1269 42.8853 68.8523 41.84C69.5883 40.784 70.6229 40.256 71.9563 40.256C73.3003 40.256 74.3403 40.784 75.0763 41.84C75.8123 42.8853 76.1803 44.3467 76.1803 46.224C76.1803 48.112 75.8123 49.584 75.0763 50.64C74.3403 51.696 73.3003 52.224 71.9563 52.224ZM71.9563 51.104C72.8843 51.104 73.6043 50.6667 74.1163 49.792C74.6389 48.9067 74.9003 47.7173 74.9003 46.224C74.9003 44.752 74.6389 43.5787 74.1163 42.704C73.6043 41.8187 72.8843 41.376 71.9563 41.376C71.0496 41.376 70.3349 41.8187 69.8123 42.704C69.3003 43.5787 69.0443 44.752 69.0443 46.224C69.0443 47.7387 69.2843 48.9333 69.7643 49.808C70.2549 50.672 70.9856 51.104 71.9563 51.104ZM110.331 52.224C108.998 52.224 107.963 51.696 107.227 50.64C106.502 49.584 106.139 48.112 106.139 46.224C106.139 44.3467 106.502 42.8853 107.227 41.84C107.963 40.784 108.998 40.256 110.331 40.256C111.675 40.256 112.715 40.784 113.451 41.84C114.187 42.8853 114.555 44.3467 114.555 46.224C114.555 48.112 114.187 49.584 113.451 50.64C112.715 51.696 111.675 52.224 110.331 52.224ZM110.331 51.104C111.259 51.104 111.979 50.6667 112.491 49.792C113.014 48.9067 113.275 47.7173 113.275 46.224C113.275 44.752 113.014 43.5787 112.491 42.704C111.979 41.8187 111.259 41.376 110.331 41.376C109.425 41.376 108.71 41.8187 108.187 42.704C107.675 43.5787 107.419 44.752 107.419 46.224C107.419 47.7387 107.659 48.9333 108.139 49.808C108.63 50.672 109.361 51.104 110.331 51.104ZM135.368 52V40.48H136.713L141.593 49.568H141.673V40.48H142.889V52H141.609L136.681 42.864H136.601V52H135.368ZM164.15 52V40.48H165.494L170.374 49.568H170.454V40.48H171.67V52H170.39L165.462 42.864H165.382V52H164.15ZM173.743 52V40.48H175.088L179.968 49.568H180.048V40.48H181.264V52H179.984L175.056 42.864H174.976V52H173.743ZM206.461 52.224C205.085 52.224 204.013 51.6853 203.245 50.608C202.487 49.52 202.109 48.0533 202.109 46.208C202.109 44.3627 202.487 42.912 203.245 41.856C204.002 40.7893 205.063 40.256 206.429 40.256C207.463 40.256 208.306 40.56 208.957 41.168C209.618 41.7653 210.055 42.5707 210.269 43.584L208.941 43.872C208.514 42.208 207.666 41.376 206.397 41.376C205.426 41.376 204.679 41.8133 204.157 42.688C203.645 43.552 203.389 44.7147 203.389 46.176C203.389 47.68 203.661 48.88 204.205 49.776C204.749 50.6613 205.527 51.104 206.541 51.104C207.319 51.104 207.949 50.816 208.429 50.24C208.909 49.664 209.149 48.768 209.149 47.552V47.36H205.709V46.24H210.509V47.056C210.509 48.7307 210.141 50.0107 209.405 50.896C208.679 51.7813 207.698 52.224 206.461 52.224ZM235.242 52.224C233.866 52.224 232.794 51.6853 232.026 50.608C231.269 49.52 230.89 48.0533 230.89 46.208C230.89 44.3627 231.269 42.912 232.026 41.856C232.783 40.7893 233.845 40.256 235.21 40.256C236.245 40.256 237.087 40.56 237.738 41.168C238.399 41.7653 238.837 42.5707 239.05 43.584L237.722 43.872C237.295 42.208 236.447 41.376 235.178 41.376C234.207 41.376 233.461 41.8133 232.938 42.688C232.426 43.552 232.17 44.7147 232.17 46.176C232.17 47.68 232.442 48.88 232.986 49.776C233.53 50.6613 234.309 51.104 235.322 51.104C236.101 51.104 236.73 50.816 237.21 50.24C237.69 49.664 237.93 48.768 237.93 47.552V47.36H234.49V46.24H239.29V47.056C239.29 48.7307 238.922 50.0107 238.186 50.896C237.461 51.7813 236.479 52.224 235.242 52.224ZM244.836 52.224C243.46 52.224 242.388 51.6853 241.62 50.608C240.862 49.52 240.484 48.0533 240.484 46.208C240.484 44.3627 240.862 42.912 241.62 41.856C242.377 40.7893 243.438 40.256 244.804 40.256C245.838 40.256 246.681 40.56 247.332 41.168C247.993 41.7653 248.43 42.5707 248.644 43.584L247.316 43.872C246.889 42.208 246.041 41.376 244.772 41.376C243.801 41.376 243.054 41.8133 242.532 42.688C242.02 43.552 241.764 44.7147 241.764 46.176C241.764 47.68 242.036 48.88 242.58 49.776C243.124 50.6613 243.902 51.104 244.916 51.104C245.694 51.104 246.324 50.816 246.804 50.24C247.284 49.664 247.524 48.768 247.524 47.552V47.36H244.084V46.24H248.884V47.056C248.884 48.7307 248.516 50.0107 247.78 50.896C247.054 51.7813 246.073 52.224 244.836 52.224ZM269.697 52V40.48H273.073C274.353 40.48 275.292 40.736 275.889 41.248C276.497 41.7493 276.801 42.5227 276.801 43.568C276.801 44.2507 276.609 44.8587 276.225 45.392C275.841 45.9253 275.35 46.2453 274.753 46.352L274.769 46.384C275.409 46.4267 275.878 46.6347 276.177 47.008C276.486 47.3707 276.652 48.0053 276.673 48.912C276.705 50.3093 276.849 51.3387 277.105 52H275.793C275.59 51.392 275.462 50.4107 275.409 49.056C275.377 48.2133 275.228 47.6533 274.961 47.376C274.694 47.088 274.145 46.944 273.313 46.944H270.977V52H269.697ZM270.977 45.824H272.929C274.657 45.824 275.521 45.072 275.521 43.568C275.521 42.8533 275.297 42.3467 274.849 42.048C274.412 41.7493 273.782 41.6 272.961 41.6H270.977V45.824ZM279.291 52V40.48H282.667C283.947 40.48 284.885 40.736 285.483 41.248C286.091 41.7493 286.395 42.5227 286.395 43.568C286.395 44.2507 286.203 44.8587 285.819 45.392C285.435 45.9253 284.944 46.2453 284.347 46.352L284.363 46.384C285.003 46.4267 285.472 46.6347 285.771 47.008C286.08 47.3707 286.245 48.0053 286.267 48.912C286.299 50.3093 286.443 51.3387 286.699 52H285.387C285.184 51.392 285.056 50.4107 285.003 49.056C284.971 48.2133 284.821 47.6533 284.555 47.376C284.288 47.088 283.739 46.944 282.907 46.944H280.571V52H279.291ZM280.571 45.824H282.523C284.251 45.824 285.115 45.072 285.115 43.568C285.115 42.8533 284.891 42.3467 284.443 42.048C284.005 41.7493 283.376 41.6 282.555 41.6H280.571V45.824ZM288.885 52V40.48H292.261C293.541 40.48 294.479 40.736 295.077 41.248C295.685 41.7493 295.989 42.5227 295.989 43.568C295.989 44.2507 295.797 44.8587 295.413 45.392C295.029 45.9253 294.538 46.2453 293.941 46.352L293.957 46.384C294.597 46.4267 295.066 46.6347 295.365 47.008C295.674 47.3707 295.839 48.0053 295.861 48.912C295.893 50.3093 296.037 51.3387 296.293 52H294.981C294.778 51.392 294.65 50.4107 294.597 49.056C294.565 48.2133 294.415 47.6533 294.149 47.376C293.882 47.088 293.333 46.944 292.501 46.944H290.164V52H288.885ZM290.164 45.824H292.117C293.845 45.824 294.709 45.072 294.709 43.568C294.709 42.8533 294.485 42.3467 294.037 42.048C293.599 41.7493 292.97 41.6 292.149 41.6H290.164V45.824ZM298.478 52V40.48H301.854C303.134 40.48 304.073 40.736 304.67 41.248C305.278 41.7493 305.582 42.5227 305.582 43.568C305.582 44.2507 305.39 44.8587 305.006 45.392C304.622 45.9253 304.132 46.2453 303.534 46.352L303.55 46.384C304.19 46.4267 304.66 46.6347 304.958 47.008C305.268 47.3707 305.433 48.0053 305.454 48.912C305.486 50.3093 305.63 51.3387 305.886 52H304.574C304.372 51.392 304.244 50.4107 304.19 49.056C304.158 48.2133 304.009 47.6533 303.742 47.376C303.476 47.088 302.926 46.944 302.094 46.944H299.758V52H298.478ZM299.758 45.824H301.71C303.438 45.824 304.302 45.072 304.302 43.568C304.302 42.8533 304.078 42.3467 303.63 42.048C303.193 41.7493 302.564 41.6 301.742 41.6H299.758V45.824ZM336.085 52L339.893 40.48H341.269L345.077 52H343.733L342.789 49.04H338.373L337.429 52H336.085ZM338.677 47.92H342.469L340.581 41.92L338.677 47.92ZM345.679 52L349.487 40.48H350.863L354.671 52H353.327L352.383 49.04H347.967L347.023 52H345.679ZM348.271 47.92H352.063L350.175 41.92L348.271 47.92ZM355.273 52L359.081 40.48H360.457L364.265 52H362.921L361.977 49.04H357.561L356.617 52H355.273ZM357.865 47.92H361.657L359.769 41.92L357.865 47.92ZM364.867 52L368.674 40.48H370.051L373.859 52H372.515L371.571 49.04H367.155L366.211 52H364.867ZM367.459 47.92H371.251L369.363 41.92L367.459 47.92ZM374.46 52L378.268 40.48H379.644L383.452 52H382.108L381.164 49.04H376.748L375.804 52H374.46ZM377.052 47.92H380.844L378.956 41.92L377.052 47.92ZM426.301 52V41.6H422.637V40.48H431.245V41.6H427.581V52H426.301ZM484.568 52.224C483.49 52.224 482.605 51.9467 481.912 51.392C481.218 50.8373 480.797 50.048 480.648 49.024L481.976 48.8C482.242 50.336 483.128 51.104 484.632 51.104C485.432 51.104 486.034 50.9067 486.44 50.512C486.845 50.1173 487.048 49.632 487.048 49.056C487.048 48.7253 486.984 48.4427 486.856 48.208C486.728 47.9627 486.525 47.76 486.248 47.6C485.97 47.4293 485.73 47.3067 485.528 47.232C485.325 47.1467 485.032 47.04 484.648 46.912L484.136 46.752C482.12 46.1227 481.112 45.0133 481.112 43.424C481.112 42.4427 481.442 41.6693 482.104 41.104C482.765 40.5387 483.624 40.256 484.68 40.256C485.608 40.256 486.397 40.4907 487.048 40.96C487.698 41.4187 488.077 42.1013 488.184 43.008L486.904 43.248C486.744 42 485.981 41.376 484.616 41.376C483.901 41.376 483.352 41.5413 482.968 41.872C482.584 42.2027 482.392 42.688 482.392 43.328C482.392 43.9573 482.578 44.432 482.952 44.752C483.325 45.0613 483.922 45.36 484.744 45.648L485.256 45.824C485.672 45.9733 485.992 46.0907 486.216 46.176C486.44 46.2613 486.706 46.3947 487.016 46.576C487.336 46.7467 487.57 46.928 487.72 47.12C487.88 47.3013 488.018 47.5467 488.135 47.856C488.264 48.1547 488.328 48.4907 488.328 48.864C488.328 49.8347 487.992 50.64 487.32 51.28C486.658 51.9093 485.741 52.224 484.568 52.224ZM494.161 52.224C493.084 52.224 492.199 51.9467 491.505 51.392C490.812 50.8373 490.391 50.048 490.241 49.024L491.569 48.8C491.836 50.336 492.721 51.104 494.225 51.104C495.025 51.104 495.628 50.9067 496.033 50.512C496.439 50.1173 496.641 49.632 496.641 49.056C496.641 48.7253 496.577 48.4427 496.449 48.208C496.321 47.9627 496.119 47.76 495.841 47.6C495.564 47.4293 495.324 47.3067 495.121 47.232C494.919 47.1467 494.625 47.04 494.241 46.912L493.729 46.752C491.713 46.1227 490.705 45.0133 490.705 43.424C490.705 42.4427 491.036 41.6693 491.697 41.104C492.359 40.5387 493.217 40.256 494.273 40.256C495.201 40.256 495.991 40.4907 496.641 40.96C497.292 41.4187 497.671 42.1013 497.777 43.008L496.497 43.248C496.337 42 495.575 41.376 494.209 41.376C493.495 41.376 492.945 41.5413 492.561 41.872C492.177 42.2027 491.985 42.688 491.985 43.328C491.985 43.9573 492.172 44.432 492.545 44.752C492.919 45.0613 493.516 45.36 494.337 45.648L494.849 45.824C495.265 45.9733 495.585 46.0907 495.809 46.176C496.033 46.2613 496.3 46.3947 496.609 46.576C496.929 46.7467 497.164 46.928 497.313 47.12C497.473 47.3013 497.612 47.5467 497.729 47.856C497.857 48.1547 497.921 48.4907 497.921 48.864C497.921 49.8347 497.585 50.64 496.913 51.28C496.252 51.9093 495.335 52.224 494.161 52.224ZM5.008 72.224C3.68533 72.224 2.65067 71.6747 1.904 70.576C1.15733 69.4667 0.784 68.0213 0.784 66.24C0.784 64.4587 1.15733 63.0187 1.904 61.92C2.66133 60.8107 3.712 60.256 5.056 60.256C6.05867 60.256 6.89067 60.5653 7.552 61.184C8.224 61.8027 8.64 62.6133 8.8 63.616L7.472 63.872C7.39733 63.2 7.14667 62.6187 6.72 62.128C6.304 61.6267 5.744 61.376 5.04 61.376C4.09067 61.376 3.35467 61.8453 2.832 62.784C2.32 63.712 2.064 64.8747 2.064 66.272C2.064 67.648 2.31467 68.8 2.816 69.728C3.31733 70.6453 4.04267 71.104 4.992 71.104C5.696 71.104 6.272 70.8533 6.72 70.352C7.168 69.8507 7.456 69.2693 7.584 68.608L8.832 68.88C8.59733 69.8827 8.144 70.6933 7.472 71.312C6.81067 71.92 5.98933 72.224 5.008 72.224ZM71.9563 72.224C70.6229 72.224 69.5883 71.696 68.8523 70.64C68.1269 69.584 67.7643 68.112 67.7643 66.224C67.7643 64.3467 68.1269 62.8853 68.8523 61.84C69.5883 60.784 70.6229 60.256 71.9563 60.256C73.3003 60.256 74.3403 60.784 75.0763 61.84C75.8123 62.8853 76.1803 64.3467 76.1803 66.224C76.1803 68.112 75.8123 69.584 75.0763 70.64C74.3403 71.696 73.3003 72.224 71.9563 72.224ZM71.9563 71.104C72.8843 71.104 73.6043 70.6667 74.1163 69.792C74.6389 68.9067 74.9003 67.7173 74.9003 66.224C74.9003 64.752 74.6389 63.5787 74.1163 62.704C73.6043 61.8187 72.8843 61.376 71.9563 61.376C71.0496 61.376 70.3349 61.8187 69.8123 62.704C69.3003 63.5787 69.0443 64.752 69.0443 66.224C69.0443 67.7387 69.2843 68.9333 69.7643 69.808C70.2549 70.672 70.9856 71.104 71.9563 71.104ZM110.331 72.224C108.998 72.224 107.963 71.696 107.227 70.64C106.502 69.584 106.139 68.112 106.139 66.224C106.139 64.3467 106.502 62.8853 107.227 61.84C107.963 60.784 108.998 60.256 110.331 60.256C111.675 60.256 112.715 60.784 113.451 61.84C114.187 62.8853 114.555 64.3467 114.555 66.224C114.555 68.112 114.187 69.584 113.451 70.64C112.715 71.696 111.675 72.224 110.331 72.224ZM110.331 71.104C111.259 71.104 111.979 70.6667 112.491 69.792C113.014 68.9067 113.275 67.7173 113.275 66.224C113.275 64.752 113.014 63.5787 112.491 62.704C111.979 61.8187 111.259 61.376 110.331 61.376C109.425 61.376 108.71 61.8187 108.187 62.704C107.675 63.5787 107.419 64.752 107.419 66.224C107.419 67.7387 107.659 68.9333 108.139 69.808C108.63 70.672 109.361 71.104 110.331 71.104ZM135.368 72V60.48H136.713L141.593 69.568H141.673V60.48H142.889V72H141.609L136.681 62.864H136.601V72H135.368ZM173.743 72V60.48H175.088L179.968 69.568H180.048V60.48H181.264V72H179.984L175.056 62.864H174.976V72H173.743ZM206.461 72.224C205.085 72.224 204.013 71.6853 203.245 70.608C202.487 69.52 202.109 68.0533 202.109 66.208C202.109 64.3627 202.487 62.912 203.245 61.856C204.002 60.7893 205.063 60.256 206.429 60.256C207.463 60.256 208.306 60.56 208.957 61.168C209.618 61.7653 210.055 62.5707 210.269 63.584L208.941 63.872C208.514 62.208 207.666 61.376 206.397 61.376C205.426 61.376 204.679 61.8133 204.157 62.688C203.645 63.552 203.389 64.7147 203.389 66.176C203.389 67.68 203.661 68.88 204.205 69.776C204.749 70.6613 205.527 71.104 206.541 71.104C207.319 71.104 207.949 70.816 208.429 70.24C208.909 69.664 209.149 68.768 209.149 67.552V67.36H205.709V66.24H210.509V67.056C210.509 68.7307 210.141 70.0107 209.405 70.896C208.679 71.7813 207.698 72.224 206.461 72.224ZM244.836 72.224C243.46 72.224 242.388 71.6853 241.62 70.608C240.862 69.52 240.484 68.0533 240.484 66.208C240.484 64.3627 240.862 62.912 241.62 61.856C242.377 60.7893 243.438 60.256 244.804 60.256C245.838 60.256 246.681 60.56 247.332 61.168C247.993 61.7653 248.43 62.5707 248.644 63.584L247.316 63.872C246.889 62.208 246.041 61.376 244.772 61.376C243.801 61.376 243.054 61.8133 242.532 62.688C242.02 63.552 241.764 64.7147 241.764 66.176C241.764 67.68 242.036 68.88 242.58 69.776C243.124 70.6613 243.902 71.104 244.916 71.104C245.694 71.104 246.324 70.816 246.804 70.24C247.284 69.664 247.524 68.768 247.524 67.552V67.36H244.084V66.24H248.884V67.056C248.884 68.7307 248.516 70.0107 247.78 70.896C247.054 71.7813 246.073 72.224 244.836 72.224ZM269.697 72V60.48H273.073C274.353 60.48 275.292 60.736 275.889 61.248C276.497 61.7493 276.801 62.5227 276.801 63.568C276.801 64.2507 276.609 64.8587 276.225 65.392C275.841 65.9253 275.35 66.2453 274.753 66.352L274.769 66.384C275.409 66.4267 275.878 66.6347 276.177 67.008C276.486 67.3707 276.652 68.0053 276.673 68.912C276.705 70.3093 276.849 71.3387 277.105 72H275.793C275.59 71.392 275.462 70.4107 275.409 69.056C275.377 68.2133 275.228 67.6533 274.961 67.376C274.694 67.088 274.145 66.944 273.313 66.944H270.977V72H269.697ZM270.977 65.824H272.929C274.657 65.824 275.521 65.072 275.521 63.568C275.521 62.8533 275.297 62.3467 274.849 62.048C274.412 61.7493 273.782 61.6 272.961 61.6H270.977V65.824ZM308.072 72V60.48H311.448C312.728 60.48 313.667 60.736 314.264 61.248C314.872 61.7493 315.176 62.5227 315.176 63.568C315.176 64.2507 314.984 64.8587 314.6 65.392C314.216 65.9253 313.725 66.2453 313.128 66.352L313.144 66.384C313.784 66.4267 314.253 66.6347 314.552 67.008C314.861 67.3707 315.027 68.0053 315.048 68.912C315.08 70.3093 315.224 71.3387 315.48 72H314.168C313.965 71.392 313.837 70.4107 313.784 69.056C313.752 68.2133 313.603 67.6533 313.336 67.376C313.069 67.088 312.52 66.944 311.688 66.944H309.352V72H308.072ZM309.352 65.824H311.304C313.032 65.824 313.896 65.072 313.896 63.568C313.896 62.8533 313.672 62.3467 313.224 62.048C312.787 61.7493 312.157 61.6 311.336 61.6H309.352V65.824ZM336.085 72L339.893 60.48H341.269L345.077 72H343.733L342.789 69.04H338.373L337.429 72H336.085ZM338.677 67.92H342.469L340.581 61.92L338.677 67.92ZM374.46 72L378.268 60.48H379.644L383.452 72H382.108L381.164 69.04H376.748L375.804 72H374.46ZM377.052 67.92H380.844L378.956 61.92L377.052 67.92ZM426.301 72V61.6H422.637V60.48H431.245V61.6H427.581V72H426.301ZM503.755 72.224C502.678 72.224 501.792 71.9467 501.099 71.392C500.406 70.8373 499.984 70.048 499.835 69.024L501.163 68.8C501.43 70.336 502.315 71.104 503.819 71.104C504.619 71.104 505.222 70.9067 505.627 70.512C506.032 70.1173 506.235 69.632 506.235 69.056C506.235 68.7253 506.171 68.4427 506.043 68.208C505.915 67.9627 505.712 67.76 505.435 67.6C505.158 67.4293 504.918 67.3067 504.715 67.232C504.512 67.1467 504.219 67.04 503.835 66.912L503.323 66.752C501.307 66.1227 500.299 65.0133 500.299 63.424C500.299 62.4427 500.63 61.6693 501.291 61.104C501.952 60.5387 502.811 60.256 503.867 60.256C504.795 60.256 505.584 60.4907 506.235 60.96C506.886 61.4187 507.264 62.1013 507.371 63.008L506.091 63.248C505.931 62 505.168 61.376 503.803 61.376C503.088 61.376 502.539 61.5413 502.155 61.872C501.771 62.2027 501.579 62.688 501.579 63.328C501.579 63.9573 501.766 64.432 502.139 64.752C502.512 65.0613 503.11 65.36 503.931 65.648L504.443 65.824C504.859 65.9733 505.179 66.0907 505.403 66.176C505.627 66.2613 505.894 66.3947 506.203 66.576C506.523 66.7467 506.758 66.928 506.907 67.12C507.067 67.3013 507.206 67.5467 507.323 67.856C507.451 68.1547 507.515 68.4907 507.515 68.864C507.515 69.8347 507.179 70.64 506.507 71.28C505.846 71.9093 504.928 72.224 503.755 72.224ZM14.6018 92.224C13.2791 92.224 12.2444 91.6747 11.4978 90.576C10.7511 89.4667 10.3778 88.0213 10.3778 86.24C10.3778 84.4587 10.7511 83.0187 11.4978 81.92C12.2551 80.8107 13.3058 80.256 14.6498 80.256C15.6524 80.256 16.4844 80.5653 17.1458 81.184C17.8178 81.8027 18.2338 82.6133 18.3938 83.616L17.0658 83.872C16.9911 83.2 16.7404 82.6187 16.3138 82.128C15.8978 81.6267 15.3378 81.376 14.6338 81.376C13.6844 81.376 12.9484 81.8453 12.4258 82.784C11.9138 83.712 11.6578 84.8747 11.6578 86.272C11.6578 87.648 11.9084 88.8 12.4098 89.728C12.9111 90.6453 13.6364 91.104 14.5858 91.104C15.2898 91.104 15.8658 90.8533 16.3138 90.352C16.7618 89.8507 17.0498 89.2693 17.1778 88.608L18.4258 88.88C18.1911 89.8827 17.7378 90.6933 17.0658 91.312C16.4044 91.92 15.5831 92.224 14.6018 92.224ZM24.1955 92.224C22.8728 92.224 21.8382 91.6747 21.0915 90.576C20.3448 89.4667 19.9715 88.0213 19.9715 86.24C19.9715 84.4587 20.3448 83.0187 21.0915 81.92C21.8488 80.8107 22.8995 80.256 24.2435 80.256C25.2462 80.256 26.0782 80.5653 26.7395 81.184C27.4115 81.8027 27.8275 82.6133 27.9875 83.616L26.6595 83.872C26.5848 83.2 26.3342 82.6187 25.9075 82.128C25.4915 81.6267 24.9315 81.376 24.2275 81.376C23.2782 81.376 22.5422 81.8453 22.0195 82.784C21.5075 83.712 21.2515 84.8747 21.2515 86.272C21.2515 87.648 21.5022 88.8 22.0035 89.728C22.5048 90.6453 23.2302 91.104 24.1795 91.104C24.8835 91.104 25.4595 90.8533 25.9075 90.352C26.3555 89.8507 26.6435 89.2693 26.7715 88.608L28.0195 88.88C27.7848 89.8827 27.3315 90.6933 26.6595 91.312C25.9982 91.92 25.1768 92.224 24.1955 92.224ZM33.7893 92.224C32.4666 92.224 31.4319 91.6747 30.6853 90.576C29.9386 89.4667 29.5653 88.0213 29.5653 86.24C29.5653 84.4587 29.9386 83.0187 30.6853 81.92C31.4426 80.8107 32.4933 80.256 33.8373 80.256C34.8399 80.256 35.6719 80.5653 36.3333 81.184C37.0053 81.8027 37.4213 82.6133 37.5813 83.616L36.2533 83.872C36.1786 83.2 35.9279 82.6187 35.5013 82.128C35.0853 81.6267 34.5253 81.376 33.8213 81.376C32.8719 81.376 32.1359 81.8453 31.6133 82.784C31.1013 83.712 30.8453 84.8747 30.8453 86.272C30.8453 87.648 31.0959 88.8 31.5973 89.728C32.0986 90.6453 32.8239 91.104 33.7733 91.104C34.4773 91.104 35.0533 90.8533 35.5013 90.352C35.9493 89.8507 36.2373 89.2693 36.3653 88.608L37.6133 88.88C37.3786 89.8827 36.9253 90.6933 36.2533 91.312C35.5919 91.92 34.7706 92.224 33.7893 92.224ZM43.383 92.224C42.0603 92.224 41.0257 91.6747 40.279 90.576C39.5323 89.4667 39.159 88.0213 39.159 86.24C39.159 84.4587 39.5323 83.0187 40.279 81.92C41.0363 80.8107 42.087 80.256 43.431 80.256C44.4337 80.256 45.2657 80.5653 45.927 81.184C46.599 81.8027 47.015 82.6133 47.175 83.616L45.847 83.872C45.7723 83.2 45.5217 82.6187 45.095 82.128C44.679 81.6267 44.119 81.376 43.415 81.376C42.4657 81.376 41.7297 81.8453 41.207 82.784C40.695 83.712 40.439 84.8747 40.439 86.272C40.439 87.648 40.6897 88.8 41.191 89.728C41.6923 90.6453 42.4177 91.104 43.367 91.104C44.071 91.104 44.647 90.8533 45.095 90.352C45.543 89.8507 45.831 89.2693 45.959 88.608L47.207 88.88C46.9723 89.8827 46.519 90.6933 45.847 91.312C45.1857 91.92 44.3643 92.224 43.383 92.224ZM81.55 92.224C80.2167 92.224 79.182 91.696 78.446 90.64C77.7207 89.584 77.358 88.112 77.358 86.224C77.358 84.3467 77.7207 82.8853 78.446 81.84C79.182 80.784 80.2167 80.256 81.55 80.256C82.894 80.256 83.934 80.784 84.67 81.84C85.406 82.8853 85.774 84.3467 85.774 86.224C85.774 88.112 85.406 89.584 84.67 90.64C83.934 91.696 82.894 92.224 81.55 92.224ZM81.55 91.104C82.478 91.104 83.198 90.6667 83.71 89.792C84.2327 88.9067 84.494 87.7173 84.494 86.224C84.494 84.752 84.2327 83.5787 83.71 82.704C83.198 81.8187 82.478 81.376 81.55 81.376C80.6433 81.376 79.9287 81.8187 79.406 82.704C78.894 83.5787 78.638 84.752 78.638 86.224C78.638 87.7387 78.878 88.9333 79.358 89.808C79.8487 90.672 80.5793 91.104 81.55 91.104ZM91.1438 92.224C89.8104 92.224 88.7758 91.696 88.0398 90.64C87.3144 89.584 86.9518 88.112 86.9518 86.224C86.9518 84.3467 87.3144 82.8853 88.0398 81.84C88.7758 80.784 89.8104 80.256 91.1438 80.256C92.4878 80.256 93.5278 80.784 94.2638 81.84C94.9998 82.8853 95.3678 84.3467 95.3678 86.224C95.3678 88.112 94.9998 89.584 94.2638 90.64C93.5278 91.696 92.4878 92.224 91.1438 92.224ZM91.1438 91.104C92.0718 91.104 92.7918 90.6667 93.3038 89.792C93.8264 88.9067 94.0878 87.7173 94.0878 86.224C94.0878 84.752 93.8264 83.5787 93.3038 82.704C92.7918 81.8187 92.0718 81.376 91.1438 81.376C90.2371 81.376 89.5224 81.8187 88.9998 82.704C88.4878 83.5787 88.2318 84.752 88.2318 86.224C88.2318 87.7387 88.4718 88.9333 88.9518 89.808C89.4424 90.672 90.1731 91.104 91.1438 91.104ZM100.738 92.224C99.4042 92.224 98.3695 91.696 97.6335 90.64C96.9082 89.584 96.5455 88.112 96.5455 86.224C96.5455 84.3467 96.9082 82.8853 97.6335 81.84C98.3695 80.784 99.4042 80.256 100.738 80.256C102.082 80.256 103.122 80.784 103.858 81.84C104.594 82.8853 104.962 84.3467 104.962 86.224C104.962 88.112 104.594 89.584 103.858 90.64C103.122 91.696 102.082 92.224 100.738 92.224ZM100.738 91.104C101.666 91.104 102.386 90.6667 102.898 89.792C103.42 88.9067 103.682 87.7173 103.682 86.224C103.682 84.752 103.42 83.5787 102.898 82.704C102.386 81.8187 101.666 81.376 100.738 81.376C99.8308 81.376 99.1162 81.8187 98.5935 82.704C98.0815 83.5787 97.8255 84.752 97.8255 86.224C97.8255 87.7387 98.0655 88.9333 98.5455 89.808C99.0362 90.672 99.7668 91.104 100.738 91.104ZM135.368 92V80.48H136.713L141.593 89.568H141.673V80.48H142.889V92H141.609L136.681 82.864H136.601V92H135.368ZM173.743 92V80.48H175.088L179.968 89.568H180.048V80.48H181.264V92H179.984L175.056 82.864H174.976V92H173.743ZM216.055 92.224C214.679 92.224 213.607 91.6853 212.839 90.608C212.081 89.52 211.703 88.0533 211.703 86.208C211.703 84.3627 212.081 82.912 212.839 81.856C213.596 80.7893 214.657 80.256 216.023 80.256C217.057 80.256 217.9 80.56 218.551 81.168C219.212 81.7653 219.649 82.5707 219.863 83.584L218.535 83.872C218.108 82.208 217.26 81.376 215.991 81.376C215.02 81.376 214.273 81.8133 213.751 82.688C213.239 83.552 212.983 84.7147 212.983 86.176C212.983 87.68 213.255 88.88 213.799 89.776C214.343 90.6613 215.121 91.104 216.135 91.104C216.913 91.104 217.543 90.816 218.023 90.24C218.503 89.664 218.743 88.768 218.743 87.552V87.36H215.303V86.24H220.102V87.056C220.102 88.7307 219.735 90.0107 218.999 90.896C218.273 91.7813 217.292 92.224 216.055 92.224ZM225.648 92.224C224.272 92.224 223.2 91.6853 222.432 90.608C221.675 89.52 221.296 88.0533 221.296 86.208C221.296 84.3627 221.675 82.912 222.432 81.856C223.19 80.7893 224.251 80.256 225.616 80.256C226.651 80.256 227.494 80.56 228.144 81.168C228.806 81.7653 229.243 82.5707 229.456 83.584L228.128 83.872C227.702 82.208 226.854 81.376 225.584 81.376C224.614 81.376 223.867 81.8133 223.344 82.688C222.832 83.552 222.576 84.7147 222.576 86.176C222.576 87.68 222.848 88.88 223.392 89.776C223.936 90.6613 224.715 91.104 225.728 91.104C226.507 91.104 227.136 90.816 227.616 90.24C228.096 89.664 228.336 88.768 228.336 87.552V87.36H224.896V86.24H229.696V87.056C229.696 88.7307 229.328 90.0107 228.592 90.896C227.867 91.7813 226.886 92.224 225.648 92.224ZM235.242 92.224C233.866 92.224 232.794 91.6853 232.026 90.608C231.269 89.52 230.89 88.0533 230.89 86.208C230.89 84.3627 231.269 82.912 232.026 81.856C232.783 80.7893 233.845 80.256 235.21 80.256C236.245 80.256 237.087 80.56 237.738 81.168C238.399 81.7653 238.837 82.5707 239.05 83.584L237.722 83.872C237.295 82.208 236.447 81.376 235.178 81.376C234.207 81.376 233.461 81.8133 232.938 82.688C232.426 83.552 232.17 84.7147 232.17 86.176C232.17 87.68 232.442 88.88 232.986 89.776C233.53 90.6613 234.309 91.104 235.322 91.104C236.101 91.104 236.73 90.816 237.21 90.24C237.69 89.664 237.93 88.768 237.93 87.552V87.36H234.49V86.24H239.29V87.056C239.29 88.7307 238.922 90.0107 238.186 90.896C237.461 91.7813 236.479 92.224 235.242 92.224ZM269.697 92V80.48H273.073C274.353 80.48 275.292 80.736 275.889 81.248C276.497 81.7493 276.801 82.5227 276.801 83.568C276.801 84.2507 276.609 84.8587 276.225 85.392C275.841 85.9253 275.35 86.2453 274.753 86.352L274.769 86.384C275.409 86.4267 275.878 86.6347 276.177 87.008C276.486 87.3707 276.652 88.0053 276.673 88.912C276.705 90.3093 276.849 91.3387 277.105 92H275.793C275.59 91.392 275.462 90.4107 275.409 89.056C275.377 88.2133 275.228 87.6533 274.961 87.376C274.694 87.088 274.145 86.944 273.313 86.944H270.977V92H269.697ZM270.977 85.824H272.929C274.657 85.824 275.521 85.072 275.521 83.568C275.521 82.8533 275.297 82.3467 274.849 82.048C274.412 81.7493 273.782 81.6 272.961 81.6H270.977V85.824ZM308.072 92V80.48H311.448C312.728 80.48 313.667 80.736 314.264 81.248C314.872 81.7493 315.176 82.5227 315.176 83.568C315.176 84.2507 314.984 84.8587 314.6 85.392C314.216 85.9253 313.725 86.2453 313.128 86.352L313.144 86.384C313.784 86.4267 314.253 86.6347 314.552 87.008C314.861 87.3707 315.027 88.0053 315.048 88.912C315.08 90.3093 315.224 91.3387 315.48 92H314.168C313.965 91.392 313.837 90.4107 313.784 89.056C313.752 88.2133 313.603 87.6533 313.336 87.376C313.069 87.088 312.52 86.944 311.688 86.944H309.352V92H308.072ZM309.352 85.824H311.304C313.032 85.824 313.896 85.072 313.896 83.568C313.896 82.8533 313.672 82.3467 313.224 82.048C312.787 81.7493 312.157 81.6 311.336 81.6H309.352V85.824ZM336.085 92L339.893 80.48H341.269L345.077 92H343.733L342.789 89.04H338.373L337.429 92H336.085ZM338.677 87.92H342.469L340.581 81.92L338.677 87.92ZM374.46 92L378.268 80.48H379.644L383.452 92H382.108L381.164 89.04H376.748L375.804 92H374.46ZM377.052 87.92H380.844L378.956 81.92L377.052 87.92ZM426.301 92V81.6H422.637V80.48H431.245V81.6H427.581V92H426.301ZM474.974 92.224C473.896 92.224 473.011 91.9467 472.318 91.392C471.624 90.8373 471.203 90.048 471.054 89.024L472.382 88.8C472.648 90.336 473.534 91.104 475.038 91.104C475.838 91.104 476.44 90.9067 476.846 90.512C477.251 90.1173 477.454 89.632 477.454 89.056C477.454 88.7253 477.39 88.4427 477.262 88.208C477.134 87.9627 476.931 87.76 476.654 87.6C476.376 87.4293 476.136 87.3067 475.934 87.232C475.731 87.1467 475.438 87.04 475.054 86.912L474.542 86.752C472.526 86.1227 471.518 85.0133 471.518 83.424C471.518 82.4427 471.848 81.6693 472.51 81.104C473.171 80.5387 474.03 80.256 475.086 80.256C476.014 80.256 476.803 80.4907 477.454 80.96C478.104 81.4187 478.483 82.1013 478.59 83.008L477.31 83.248C477.15 82 476.387 81.376 475.022 81.376C474.307 81.376 473.758 81.5413 473.374 81.872C472.99 82.2027 472.798 82.688 472.798 83.328C472.798 83.9573 472.984 84.432 473.358 84.752C473.731 85.0613 474.328 85.36 475.15 85.648L475.662 85.824C476.078 85.9733 476.398 86.0907 476.622 86.176C476.846 86.2613 477.112 86.3947 477.422 86.576C477.742 86.7467 477.976 86.928 478.126 87.12C478.286 87.3013 478.424 87.5467 478.542 87.856C478.67 88.1547 478.734 88.4907 478.734 88.864C478.734 89.8347 478.398 90.64 477.726 91.28C477.064 91.9093 476.147 92.224 474.974 92.224ZM484.568 92.224C483.49 92.224 482.605 91.9467 481.912 91.392C481.218 90.8373 480.797 90.048 480.648 89.024L481.976 88.8C482.242 90.336 483.128 91.104 484.632 91.104C485.432 91.104 486.034 90.9067 486.44 90.512C486.845 90.1173 487.048 89.632 487.048 89.056C487.048 88.7253 486.984 88.4427 486.856 88.208C486.728 87.9627 486.525 87.76 486.248 87.6C485.97 87.4293 485.73 87.3067 485.528 87.232C485.325 87.1467 485.032 87.04 484.648 86.912L484.136 86.752C482.12 86.1227 481.112 85.0133 481.112 83.424C481.112 82.4427 481.442 81.6693 482.104 81.104C482.765 80.5387 483.624 80.256 484.68 80.256C485.608 80.256 486.397 80.4907 487.048 80.96C487.698 81.4187 488.077 82.1013 488.184 83.008L486.904 83.248C486.744 82 485.981 81.376 484.616 81.376C483.901 81.376 483.352 81.5413 482.968 81.872C482.584 82.2027 482.392 82.688 482.392 83.328C482.392 83.9573 482.578 84.432 482.952 84.752C483.325 85.0613 483.922 85.36 484.744 85.648L485.256 85.824C485.672 85.9733 485.992 86.0907 486.216 86.176C486.44 86.2613 486.706 86.3947 487.016 86.576C487.336 86.7467 487.57 86.928 487.72 87.12C487.88 87.3013 488.018 87.5467 488.135 87.856C488.264 88.1547 488.328 88.4907 488.328 88.864C488.328 89.8347 487.992 90.64 487.32 91.28C486.658 91.9093 485.741 92.224 484.568 92.224ZM494.161 92.224C493.084 92.224 492.199 91.9467 491.505 91.392C490.812 90.8373 490.391 90.048 490.241 89.024L491.569 88.8C491.836 90.336 492.721 91.104 494.225 91.104C495.025 91.104 495.628 90.9067 496.033 90.512C496.439 90.1173 496.641 89.632 496.641 89.056C496.641 88.7253 496.577 88.4427 496.449 88.208C496.321 87.9627 496.119 87.76 495.841 87.6C495.564 87.4293 495.324 87.3067 495.121 87.232C494.919 87.1467 494.625 87.04 494.241 86.912L493.729 86.752C491.713 86.1227 490.705 85.0133 490.705 83.424C490.705 82.4427 491.036 81.6693 491.697 81.104C492.359 80.5387 493.217 80.256 494.273 80.256C495.201 80.256 495.991 80.4907 496.641 80.96C497.292 81.4187 497.671 82.1013 497.777 83.008L496.497 83.248C496.337 82 495.575 81.376 494.209 81.376C493.495 81.376 492.945 81.5413 492.561 81.872C492.177 82.2027 491.985 82.688 491.985 83.328C491.985 83.9573 492.172 84.432 492.545 84.752C492.919 85.0613 493.516 85.36 494.337 85.648L494.849 85.824C495.265 85.9733 495.585 86.0907 495.809 86.176C496.033 86.2613 496.3 86.3947 496.609 86.576C496.929 86.7467 497.164 86.928 497.313 87.12C497.473 87.3013 497.612 87.5467 497.729 87.856C497.857 88.1547 497.921 88.4907 497.921 88.864C497.921 89.8347 497.585 90.64 496.913 91.28C496.252 91.9093 495.335 92.224 494.161 92.224ZM503.755 92.224C502.678 92.224 501.792 91.9467 501.099 91.392C500.406 90.8373 499.984 90.048 499.835 89.024L501.163 88.8C501.43 90.336 502.315 91.104 503.819 91.104C504.619 91.104 505.222 90.9067 505.627 90.512C506.032 90.1173 506.235 89.632 506.235 89.056C506.235 88.7253 506.171 88.4427 506.043 88.208C505.915 87.9627 505.712 87.76 505.435 87.6C505.158 87.4293 504.918 87.3067 504.715 87.232C504.512 87.1467 504.219 87.04 503.835 86.912L503.323 86.752C501.307 86.1227 500.299 85.0133 500.299 83.424C500.299 82.4427 500.63 81.6693 501.291 81.104C501.952 80.5387 502.811 80.256 503.867 80.256C504.795 80.256 505.584 80.4907 506.235 80.96C506.886 81.4187 507.264 82.1013 507.371 83.008L506.091 83.248C505.931 82 505.168 81.376 503.803 81.376C503.088 81.376 502.539 81.5413 502.155 81.872C501.771 82.2027 501.579 82.688 501.579 83.328C501.579 83.9573 501.766 84.432 502.139 84.752C502.512 85.0613 503.11 85.36 503.931 85.648L504.443 85.824C504.859 85.9733 505.179 86.0907 505.403 86.176C505.627 86.2613 505.894 86.3947 506.203 86.576C506.523 86.7467 506.758 86.928 506.907 87.12C507.067 87.3013 507.206 87.5467 507.323 87.856C507.451 88.1547 507.515 88.4907 507.515 88.864C507.515 89.8347 507.179 90.64 506.507 91.28C505.846 91.9093 504.928 92.224 503.755 92.224Z" fill="#C84414"/>
</svg>
