<svg width="557" height="80" viewBox="0 0 557 80" fill="none" xmlns="http://www.w3.org/2000/svg">
<path d="M0.784 16H2.064V5.792H2.112L4.192 12.752H5.44L7.52 5.792H7.568V16H8.848V4.48H6.736L4.768 11.088L2.88 4.48H0.784V16ZM10.3778 16H11.6578V5.792H11.7057L13.7858 12.752H15.0338L17.1138 5.792H17.1618V16H18.4418V4.48H16.3298L14.3618 11.088L12.4738 4.48H10.3778V16ZM48.7528 16H50.0328V5.792H50.0807L52.1608 12.752H53.4088L55.4888 5.792H55.5368V16H56.8168V4.48H54.7048L52.7368 11.088L50.8488 4.48H48.7528V16ZM58.3465 16H59.6265V5.792H59.6745L61.7545 12.752H63.0025L65.0825 5.792H65.1305V16H66.4105V4.48H64.2985L62.3305 11.088L60.4425 4.48H58.3465V16ZM87.7678 16H94.5358V14.88H89.0478V10.608H93.5918V9.504H89.0478V5.6H94.3758V4.48H87.7678V16ZM97.3615 16H104.13V14.88H98.6415V10.608H103.186V9.504H98.6415V5.6H103.97V4.48H97.3615V16ZM106.955 16H113.723V14.88H108.235V10.608H112.779V9.504H108.235V5.6H113.563V4.48H106.955V16ZM116.549 16H123.317V14.88H117.829V10.608H122.373V9.504H117.829V5.6H123.157V4.48H116.549V16ZM126.143 16H132.911V14.88H127.423V10.608H131.967V9.504H127.423V5.6H132.751V4.48H126.143V16ZM148.082 16H149.362V5.6H153.026V4.48H144.418V5.6H148.082V16ZM157.676 16H158.956V5.6H162.62V4.48H154.012V5.6H157.676V16ZM167.27 16H168.55V5.6H172.214V4.48H163.606V5.6H167.27V16ZM176.864 16H178.144V5.6H181.808V4.48H173.2V5.6H176.864V16ZM186.457 16H187.737V5.6H191.401V4.48H182.793V5.6H186.457V16ZM196.051 16H197.331V5.6H200.995V4.48H192.387V5.6H196.051V16ZM205.645 16H206.925V5.6H210.589V4.48H201.981V5.6H205.645V16ZM230.554 16H231.914L232.858 13.04H237.274L238.218 16H239.578C237.066 8.288 236.442 6.336 235.85 4.48H234.282L230.554 16ZM233.162 11.92L235.066 5.92L236.954 11.92H233.162ZM240.148 16H241.508L242.452 13.04H246.868L247.812 16H249.172C246.66 8.288 246.036 6.336 245.444 4.48H243.876L240.148 16ZM242.756 11.92L244.66 5.92L246.548 11.92H242.756ZM249.742 16H251.102L252.046 13.04H256.462L257.406 16H258.766C256.254 8.288 255.63 6.336 255.038 4.48H253.47L249.742 16ZM252.35 11.92L254.254 5.92L256.142 11.92H252.35ZM302.318 16.224C304.686 16.224 306.446 14.48 306.446 11.056V10.24H301.646V11.36H305.086V11.552C305.086 14.112 303.838 15.104 302.334 15.104C300.51 15.104 299.278 12.784 299.278 10.256C299.278 7.632 300.334 5.376 302.318 5.376C303.998 5.376 304.638 6.736 304.926 7.872L306.254 7.584C305.838 5.984 304.574 4.256 302.318 4.256C299.614 4.256 297.998 6.864 297.998 10.256C297.998 13.52 299.662 16.224 302.318 16.224ZM311.912 16.224C314.28 16.224 316.04 14.48 316.04 11.056V10.24H311.24V11.36H314.68V11.552C314.68 14.112 313.432 15.104 311.928 15.104C310.104 15.104 308.872 12.784 308.872 10.256C308.872 7.632 309.928 5.376 311.912 5.376C313.592 5.376 314.232 6.736 314.52 7.872L315.848 7.584C315.432 5.984 314.168 4.256 311.912 4.256C309.208 4.256 307.592 6.864 307.592 10.256C307.592 13.52 309.256 16.224 311.912 16.224ZM321.506 16.224C323.874 16.224 325.634 14.48 325.634 11.056V10.24H320.834V11.36H324.274V11.552C324.274 14.112 323.026 15.104 321.522 15.104C319.698 15.104 318.466 12.784 318.466 10.256C318.466 7.632 319.522 5.376 321.506 5.376C323.186 5.376 323.826 6.736 324.114 7.872L325.442 7.584C325.026 5.984 323.762 4.256 321.506 4.256C318.802 4.256 317.186 6.864 317.186 10.256C317.186 13.52 318.85 16.224 321.506 16.224ZM364.867 16H366.227L367.171 13.04H371.587L372.531 16H373.891C371.379 8.288 370.755 6.336 370.163 4.48H368.595L364.867 16ZM367.475 11.92L369.379 5.92L371.267 11.92H367.475ZM374.46 16H375.82L376.764 13.04H381.18L382.124 16H383.484C380.972 8.288 380.348 6.336 379.756 4.48H378.188L374.46 16ZM377.068 11.92L378.972 5.92L380.86 11.92H377.068ZM384.054 16H385.414L386.358 13.04H390.774L391.718 16H393.078C390.566 8.288 389.942 6.336 389.35 4.48H387.782L384.054 16ZM386.662 11.92L388.566 5.92L390.454 11.92H386.662ZM422.909 16H424.189V5.792H424.237L426.317 12.752H427.565L429.645 5.792H429.693V16H430.973V4.48H428.861L426.893 11.088L425.005 4.48H422.909V16ZM432.503 16H433.783V5.792H433.831L435.911 12.752H437.159L439.239 5.792H439.287V16H440.567V4.48H438.455L436.487 11.088L434.599 4.48H432.503V16ZM470.878 16H472.158V5.792H472.206L474.286 12.752H475.534L477.614 5.792H477.662V16H478.942V4.48H476.83L474.862 11.088L472.974 4.48H470.878V16ZM480.472 16H481.752V5.792H481.799L483.88 12.752H485.128L487.208 5.792H487.256V16H488.536V4.48H486.424L484.456 11.088L482.568 4.48H480.472V16ZM509.893 16H516.661V14.88H511.173V10.608H515.717V9.504H511.173V5.6H516.501V4.48H509.893V16ZM519.487 16H526.255V14.88H520.767V10.608H525.311V9.504H520.767V5.6H526.095V4.48H519.487V16ZM529.08 16H535.848V14.88H530.36V10.608H534.904V9.504H530.36V5.6H535.688V4.48H529.08V16ZM538.674 16H545.442V14.88H539.954V10.608H544.498V9.504H539.954V5.6H545.282V4.48H538.674V16ZM548.268 16H555.036V14.88H549.548V10.608H554.092V9.504H549.548V5.6H554.876V4.48H548.268V16ZM0.784 36H2.064V25.792H2.112L4.192 32.752H5.44L7.52 25.792H7.568V36H8.848V24.48H6.736L4.768 31.088L2.88 24.48H0.784V36ZM19.9715 36H21.2515V25.792H21.2995L23.3795 32.752H24.6275L26.7075 25.792H26.7555V36H28.0355V24.48H25.9235L23.9555 31.088L22.0675 24.48H19.9715V36ZM39.159 36H40.439V25.792H40.487L42.567 32.752H43.815L45.895 25.792H45.943V36H47.223V24.48H45.111L43.143 31.088L41.255 24.48H39.159V36ZM58.3465 36H59.6265V25.792H59.6745L61.7545 32.752H63.0025L65.0825 25.792H65.1305V36H66.4105V24.48H64.2985L62.3305 31.088L60.4425 24.48H58.3465V36ZM87.7678 36H94.5358V34.88H89.0478V30.608H93.5918V29.504H89.0478V25.6H94.3758V24.48H87.7678V36ZM97.3615 36H104.13V34.88H98.6415V30.608H103.186V29.504H98.6415V25.6H103.97V24.48H97.3615V36ZM106.955 36H113.723V34.88H108.235V30.608H112.779V29.504H108.235V25.6H113.563V24.48H106.955V36ZM116.549 36H123.317V34.88H117.829V30.608H122.373V29.504H117.829V25.6H123.157V24.48H116.549V36ZM176.864 36H178.144V25.6H181.808V24.48H173.2V25.6H176.864V36ZM220.96 36H222.32L223.264 33.04H227.68L228.624 36H229.984C227.472 28.288 226.848 26.336 226.256 24.48H224.688L220.96 36ZM223.568 31.92L225.472 25.92L227.36 31.92H223.568ZM259.335 36H260.695L261.639 33.04H266.055L266.999 36H268.359C265.847 28.288 265.223 26.336 264.631 24.48H263.063L259.335 36ZM261.943 31.92L263.847 25.92L265.735 31.92H261.943ZM292.725 36.224C295.093 36.224 296.852 34.48 296.852 31.056V30.24H292.053V31.36H295.493V31.552C295.493 34.112 294.245 35.104 292.741 35.104C290.917 35.104 289.685 32.784 289.685 30.256C289.685 27.632 290.741 25.376 292.725 25.376C294.405 25.376 295.045 26.736 295.333 27.872L296.661 27.584C296.245 25.984 294.981 24.256 292.725 24.256C290.021 24.256 288.405 26.864 288.405 30.256C288.405 33.52 290.069 36.224 292.725 36.224ZM355.273 36H356.633L357.577 33.04H361.993L362.937 36H364.297C361.785 28.288 361.161 26.336 360.569 24.48H359.001L355.273 36ZM357.881 31.92L359.785 25.92L361.673 31.92H357.881ZM393.648 36H395.008L395.952 33.04H400.368L401.312 36H402.672C400.16 28.288 399.536 26.336 398.944 24.48H397.376L393.648 36ZM396.256 31.92L398.16 25.92L400.048 31.92H396.256ZM422.909 36H424.189V25.792H424.237L426.317 32.752H427.565L429.645 25.792H429.693V36H430.973V24.48H428.861L426.893 31.088L425.005 24.48H422.909V36ZM442.097 36H443.377V25.792H443.424L445.505 32.752H446.753L448.833 25.792H448.881V36H450.161V24.48H448.049L446.081 31.088L444.193 24.48H442.097V36ZM461.284 36H462.564V25.792H462.612L464.692 32.752H465.94L468.02 25.792H468.068V36H469.348V24.48H467.236L465.268 31.088L463.38 24.48H461.284V36ZM480.472 36H481.752V25.792H481.799L483.88 32.752H485.128L487.208 25.792H487.256V36H488.536V24.48H486.424L484.456 31.088L482.568 24.48H480.472V36ZM509.893 36H516.661V34.88H511.173V30.608H515.717V29.504H511.173V25.6H516.501V24.48H509.893V36ZM519.487 36H526.255V34.88H520.767V30.608H525.311V29.504H520.767V25.6H526.095V24.48H519.487V36ZM529.08 36H535.848V34.88H530.36V30.608H534.904V29.504H530.36V25.6H535.688V24.48H529.08V36ZM538.674 36H545.442V34.88H539.954V30.608H544.498V29.504H539.954V25.6H545.282V24.48H538.674V36ZM0.784 56H2.064V45.792H2.112L4.192 52.752H5.44L7.52 45.792H7.568V56H8.848V44.48H6.736L4.768 51.088L2.88 44.48H0.784V56ZM29.5653 56H30.8453V45.792H30.8932L32.9733 52.752H34.2213L36.3013 45.792H36.3493V56H37.6293V44.48H35.5173L33.5493 51.088L31.6613 44.48H29.5653V56ZM58.3465 56H59.6265V45.792H59.6745L61.7545 52.752H63.0025L65.0825 45.792H65.1305V56H66.4105V44.48H64.2985L62.3305 51.088L60.4425 44.48H58.3465V56ZM87.7678 56H94.5358V54.88H89.0478V50.608H93.5918V49.504H89.0478V45.6H94.3758V44.48H87.7678V56ZM176.864 56H178.144V45.6H181.808V44.48H173.2V45.6H176.864V56ZM220.96 56H222.32L223.264 53.04H227.68L228.624 56H229.984C227.472 48.288 226.848 46.336 226.256 44.48H224.688L220.96 56ZM223.568 51.92L225.472 45.92L227.36 51.92H223.568ZM230.554 56H231.914L232.858 53.04H237.274L238.218 56H239.578C237.066 48.288 236.442 46.336 235.85 44.48H234.282L230.554 56ZM233.162 51.92L235.066 45.92L236.954 51.92H233.162ZM240.148 56H241.508L242.452 53.04H246.868L247.812 56H249.172C246.66 48.288 246.036 46.336 245.444 44.48H243.876L240.148 56ZM242.756 51.92L244.66 45.92L246.548 51.92H242.756ZM249.742 56H251.102L252.046 53.04H256.462L257.406 56H258.766C256.254 48.288 255.63 46.336 255.038 44.48H253.47L249.742 56ZM252.35 51.92L254.254 45.92L256.142 51.92H252.35ZM259.335 56H260.695L261.639 53.04H266.055L266.999 56H268.359C265.847 48.288 265.223 46.336 264.631 44.48H263.063L259.335 56ZM261.943 51.92L263.847 45.92L265.735 51.92H261.943ZM292.725 56.224C295.093 56.224 296.852 54.48 296.852 51.056V50.24H292.053V51.36H295.493V51.552C295.493 54.112 294.245 55.104 292.741 55.104C290.917 55.104 289.685 52.784 289.685 50.256C289.685 47.632 290.741 45.376 292.725 45.376C294.405 45.376 295.045 46.736 295.333 47.872L296.661 47.584C296.245 45.984 294.981 44.256 292.725 44.256C290.021 44.256 288.405 46.864 288.405 50.256C288.405 53.52 290.069 56.224 292.725 56.224ZM321.506 56.224C323.874 56.224 325.634 54.48 325.634 51.056V50.24H320.834V51.36H324.274V51.552C324.274 54.112 323.026 55.104 321.522 55.104C319.698 55.104 318.466 52.784 318.466 50.256C318.466 47.632 319.522 45.376 321.506 45.376C323.186 45.376 323.826 46.736 324.114 47.872L325.442 47.584C325.026 45.984 323.762 44.256 321.506 44.256C318.802 44.256 317.186 46.864 317.186 50.256C317.186 53.52 318.85 56.224 321.506 56.224ZM331.1 56.224C333.468 56.224 335.227 54.48 335.227 51.056V50.24H330.428V51.36H333.868V51.552C333.868 54.112 332.62 55.104 331.116 55.104C329.292 55.104 328.06 52.784 328.06 50.256C328.06 47.632 329.116 45.376 331.1 45.376C332.78 45.376 333.42 46.736 333.708 47.872L335.036 47.584C334.62 45.984 333.356 44.256 331.1 44.256C328.396 44.256 326.78 46.864 326.78 50.256C326.78 53.52 328.444 56.224 331.1 56.224ZM355.273 56H356.633L357.577 53.04H361.993L362.937 56H364.297C361.785 48.288 361.161 46.336 360.569 44.48H359.001L355.273 56ZM357.881 51.92L359.785 45.92L361.673 51.92H357.881ZM364.867 56H366.227L367.171 53.04H371.587L372.531 56H373.891C371.379 48.288 370.755 46.336 370.163 44.48H368.595L364.867 56ZM367.475 51.92L369.379 45.92L371.267 51.92H367.475ZM374.46 56H375.82L376.764 53.04H381.18L382.124 56H383.484C380.972 48.288 380.348 46.336 379.756 44.48H378.188L374.46 56ZM377.068 51.92L378.972 45.92L380.86 51.92H377.068ZM384.054 56H385.414L386.358 53.04H390.774L391.718 56H393.078C390.566 48.288 389.942 46.336 389.35 44.48H387.782L384.054 56ZM386.662 51.92L388.566 45.92L390.454 51.92H386.662ZM393.648 56H395.008L395.952 53.04H400.368L401.312 56H402.672C400.16 48.288 399.536 46.336 398.944 44.48H397.376L393.648 56ZM396.256 51.92L398.16 45.92L400.048 51.92H396.256ZM422.909 56H424.189V45.792H424.237L426.317 52.752H427.565L429.645 45.792H429.693V56H430.973V44.48H428.861L426.893 51.088L425.005 44.48H422.909V56ZM451.69 56H452.97V45.792H453.018L455.098 52.752H456.346L458.426 45.792H458.474V56H459.754V44.48H457.642L455.674 51.088L453.786 44.48H451.69V56ZM480.472 56H481.752V45.792H481.799L483.88 52.752H485.128L487.208 45.792H487.256V56H488.536V44.48H486.424L484.456 51.088L482.568 44.48H480.472V56ZM509.893 56H516.661V54.88H511.173V50.608H515.717V49.504H511.173V45.6H516.501V44.48H509.893V56ZM0.784 76H2.064V65.792H2.112L4.192 72.752H5.44L7.52 65.792H7.568V76H8.848V64.48H6.736L4.768 71.088L2.88 64.48H0.784V76ZM58.3465 76H59.6265V65.792H59.6745L61.7545 72.752H63.0025L65.0825 65.792H65.1305V76H66.4105V64.48H64.2985L62.3305 71.088L60.4425 64.48H58.3465V76ZM87.7678 76H94.5358V74.88H89.0478V70.608H93.5918V69.504H89.0478V65.6H94.3758V64.48H87.7678V76ZM97.3615 76H104.13V74.88H98.6415V70.608H103.186V69.504H98.6415V65.6H103.97V64.48H97.3615V76ZM106.955 76H113.723V74.88H108.235V70.608H112.779V69.504H108.235V65.6H113.563V64.48H106.955V76ZM116.549 76H123.317V74.88H117.829V70.608H122.373V69.504H117.829V65.6H123.157V64.48H116.549V76ZM126.143 76H132.911V74.88H127.423V70.608H131.967V69.504H127.423V65.6H132.751V64.48H126.143V76ZM176.864 76H178.144V65.6H181.808V64.48H173.2V65.6H176.864V76ZM220.96 76H222.32L223.264 73.04H227.68L228.624 76H229.984C227.472 68.288 226.848 66.336 226.256 64.48H224.688L220.96 76ZM223.568 71.92L225.472 65.92L227.36 71.92H223.568ZM259.335 76H260.695L261.639 73.04H266.055L266.999 76H268.359C265.847 68.288 265.223 66.336 264.631 64.48H263.063L259.335 76ZM261.943 71.92L263.847 65.92L265.735 71.92H261.943ZM302.318 76.224C304.686 76.224 306.446 74.48 306.446 71.056V70.24H301.646V71.36H305.086V71.552C305.086 74.112 303.838 75.104 302.334 75.104C300.51 75.104 299.278 72.784 299.278 70.256C299.278 67.632 300.334 65.376 302.318 65.376C303.998 65.376 304.638 66.736 304.926 67.872L306.254 67.584C305.838 65.984 304.574 64.256 302.318 64.256C299.614 64.256 297.998 66.864 297.998 70.256C297.998 73.52 299.662 76.224 302.318 76.224ZM311.912 76.224C314.28 76.224 316.04 74.48 316.04 71.056V70.24H311.24V71.36H314.68V71.552C314.68 74.112 313.432 75.104 311.928 75.104C310.104 75.104 308.872 72.784 308.872 70.256C308.872 67.632 309.928 65.376 311.912 65.376C313.592 65.376 314.232 66.736 314.52 67.872L315.848 67.584C315.432 65.984 314.168 64.256 311.912 64.256C309.208 64.256 307.592 66.864 307.592 70.256C307.592 73.52 309.256 76.224 311.912 76.224ZM321.506 76.224C323.874 76.224 325.634 74.48 325.634 71.056V70.24H320.834V71.36H324.274V71.552C324.274 74.112 323.026 75.104 321.522 75.104C319.698 75.104 318.466 72.784 318.466 70.256C318.466 67.632 319.522 65.376 321.506 65.376C323.186 65.376 323.826 66.736 324.114 67.872L325.442 67.584C325.026 65.984 323.762 64.256 321.506 64.256C318.802 64.256 317.186 66.864 317.186 70.256C317.186 73.52 318.85 76.224 321.506 76.224ZM355.273 76H356.633L357.577 73.04H361.993L362.937 76H364.297C361.785 68.288 361.161 66.336 360.569 64.48H359.001L355.273 76ZM357.881 71.92L359.785 65.92L361.673 71.92H357.881ZM393.648 76H395.008L395.952 73.04H400.368L401.312 76H402.672C400.16 68.288 399.536 66.336 398.944 64.48H397.376L393.648 76ZM396.256 71.92L398.16 65.92L400.048 71.92H396.256ZM422.909 76H424.189V65.792H424.237L426.317 72.752H427.565L429.645 65.792H429.693V76H430.973V64.48H428.861L426.893 71.088L425.005 64.48H422.909V76ZM480.472 76H481.752V65.792H481.799L483.88 72.752H485.128L487.208 65.792H487.256V76H488.536V64.48H486.424L484.456 71.088L482.568 64.48H480.472V76ZM509.893 76H516.661V74.88H511.173V70.608H515.717V69.504H511.173V65.6H516.501V64.48H509.893V76ZM519.487 76H526.255V74.88H520.767V70.608H525.311V69.504H520.767V65.6H526.095V64.48H519.487V76ZM529.08 76H535.848V74.88H530.36V70.608H534.904V69.504H530.36V65.6H535.688V64.48H529.08V76ZM538.674 76H545.442V74.88H539.954V70.608H544.498V69.504H539.954V65.6H545.282V64.48H538.674V76ZM548.268 76H555.036V74.88H549.548V70.608H554.092V69.504H549.548V65.6H554.876V64.48H548.268V76Z" fill="#C84414"/>
</svg>
